<mxfile host="app.diagrams.net" modified="2023-05-30T16:28:34.881Z" agent="Mozilla/5.0 (Windows NT 10.0; Win64; x64) AppleWebKit/537.36 (KHTML, like Gecko) Chrome/113.0.0.0 Safari/537.36" etag="LwMldPUAM7ZgXFvbrt79" version="21.3.5" type="github">
  <diagram name="페이지-1" id="YX2WNFQ6lp3IyDblcWql">
    <mxGraphModel dx="2562" dy="2274" grid="1" gridSize="10" guides="1" tooltips="1" connect="1" arrows="1" fold="1" page="1" pageScale="1" pageWidth="827" pageHeight="1169" math="0" shadow="0">
      <root>
        <mxCell id="0" />
        <mxCell id="1" parent="0" />
        <mxCell id="YL34BN4v0T42psHyDMME-12" style="edgeStyle=orthogonalEdgeStyle;rounded=0;orthogonalLoop=1;jettySize=auto;html=1;" edge="1" parent="1" source="YL34BN4v0T42psHyDMME-1" target="YL34BN4v0T42psHyDMME-7">
          <mxGeometry relative="1" as="geometry" />
        </mxCell>
        <mxCell id="YL34BN4v0T42psHyDMME-1" value="&lt;b&gt;&lt;font style=&quot;font-size: 21px;&quot;&gt;게임 시스템 실행&lt;/font&gt;&lt;/b&gt;" style="rounded=1;whiteSpace=wrap;html=1;fillColor=#dae8fc;strokeColor=#6c8ebf;" vertex="1" parent="1">
          <mxGeometry x="-60" y="-1160" width="120" height="50" as="geometry" />
        </mxCell>
        <mxCell id="YL34BN4v0T42psHyDMME-11" style="edgeStyle=orthogonalEdgeStyle;rounded=0;orthogonalLoop=1;jettySize=auto;html=1;entryX=0.497;entryY=0.017;entryDx=0;entryDy=0;entryPerimeter=0;" edge="1" parent="1" source="YL34BN4v0T42psHyDMME-7" target="YL34BN4v0T42psHyDMME-10">
          <mxGeometry relative="1" as="geometry" />
        </mxCell>
        <mxCell id="YL34BN4v0T42psHyDMME-7" value="&lt;font style=&quot;font-size: 16px;&quot;&gt;사용자 입력&lt;/font&gt;" style="shape=parallelogram;perimeter=parallelogramPerimeter;whiteSpace=wrap;html=1;fixedSize=1;" vertex="1" parent="1">
          <mxGeometry x="-60" y="-1070" width="120" height="60" as="geometry" />
        </mxCell>
        <mxCell id="YL34BN4v0T42psHyDMME-15" style="edgeStyle=orthogonalEdgeStyle;rounded=0;orthogonalLoop=1;jettySize=auto;html=1;entryX=0.5;entryY=0;entryDx=0;entryDy=0;" edge="1" parent="1" source="YL34BN4v0T42psHyDMME-10" target="YL34BN4v0T42psHyDMME-29">
          <mxGeometry relative="1" as="geometry">
            <mxPoint x="-160" y="-820" as="targetPoint" />
            <Array as="points">
              <mxPoint x="-160" y="-920" />
            </Array>
          </mxGeometry>
        </mxCell>
        <mxCell id="YL34BN4v0T42psHyDMME-17" style="edgeStyle=orthogonalEdgeStyle;rounded=0;orthogonalLoop=1;jettySize=auto;html=1;entryX=0.5;entryY=0;entryDx=0;entryDy=0;" edge="1" parent="1" source="YL34BN4v0T42psHyDMME-10" target="YL34BN4v0T42psHyDMME-30">
          <mxGeometry relative="1" as="geometry">
            <mxPoint x="150" y="-820" as="targetPoint" />
            <Array as="points">
              <mxPoint x="150" y="-920" />
            </Array>
          </mxGeometry>
        </mxCell>
        <mxCell id="YL34BN4v0T42psHyDMME-25" style="edgeStyle=orthogonalEdgeStyle;rounded=0;orthogonalLoop=1;jettySize=auto;html=1;entryX=0.5;entryY=0;entryDx=0;entryDy=0;" edge="1" parent="1" source="YL34BN4v0T42psHyDMME-10" target="YL34BN4v0T42psHyDMME-28">
          <mxGeometry relative="1" as="geometry">
            <mxPoint x="-340" y="-820" as="targetPoint" />
          </mxGeometry>
        </mxCell>
        <mxCell id="YL34BN4v0T42psHyDMME-26" style="edgeStyle=orthogonalEdgeStyle;rounded=0;orthogonalLoop=1;jettySize=auto;html=1;entryX=0.5;entryY=0;entryDx=0;entryDy=0;" edge="1" parent="1" source="YL34BN4v0T42psHyDMME-10" target="YL34BN4v0T42psHyDMME-31">
          <mxGeometry relative="1" as="geometry">
            <mxPoint x="330" y="-820" as="targetPoint" />
          </mxGeometry>
        </mxCell>
        <mxCell id="YL34BN4v0T42psHyDMME-10" value="&lt;b&gt;&lt;font style=&quot;font-size: 16px;&quot;&gt;입력 받은 것은 무엇인가?&lt;/font&gt;&lt;/b&gt;" style="html=1;whiteSpace=wrap;aspect=fixed;shape=isoRectangle;" vertex="1" parent="1">
          <mxGeometry x="-100" y="-980" width="200" height="120" as="geometry" />
        </mxCell>
        <mxCell id="YL34BN4v0T42psHyDMME-18" value="&lt;span style=&quot;font-weight: normal;&quot;&gt;&lt;font style=&quot;font-size: 18px;&quot;&gt;1번 일때&lt;/font&gt;&lt;/span&gt;" style="text;strokeColor=none;fillColor=none;html=1;fontSize=24;fontStyle=1;verticalAlign=middle;align=center;" vertex="1" parent="1">
          <mxGeometry x="-390" y="-950" width="100" height="20" as="geometry" />
        </mxCell>
        <mxCell id="YL34BN4v0T42psHyDMME-20" value="&lt;span style=&quot;font-weight: normal;&quot;&gt;&lt;font style=&quot;font-size: 18px;&quot;&gt;2번 일때&lt;/font&gt;&lt;/span&gt;" style="text;strokeColor=none;fillColor=none;html=1;fontSize=24;fontStyle=1;verticalAlign=middle;align=center;" vertex="1" parent="1">
          <mxGeometry x="-210" y="-950" width="100" height="20" as="geometry" />
        </mxCell>
        <mxCell id="YL34BN4v0T42psHyDMME-21" value="&lt;span style=&quot;font-weight: normal;&quot;&gt;&lt;font style=&quot;font-size: 18px;&quot;&gt;3번 일때&lt;/font&gt;&lt;/span&gt;" style="text;strokeColor=none;fillColor=none;html=1;fontSize=24;fontStyle=1;verticalAlign=middle;align=center;" vertex="1" parent="1">
          <mxGeometry x="100" y="-950" width="100" height="20" as="geometry" />
        </mxCell>
        <mxCell id="YL34BN4v0T42psHyDMME-22" value="&lt;span style=&quot;font-weight: normal;&quot;&gt;&lt;font style=&quot;font-size: 18px;&quot;&gt;4번 일때&lt;/font&gt;&lt;/span&gt;" style="text;strokeColor=none;fillColor=none;html=1;fontSize=24;fontStyle=1;verticalAlign=middle;align=center;" vertex="1" parent="1">
          <mxGeometry x="280" y="-950" width="100" height="20" as="geometry" />
        </mxCell>
        <mxCell id="YL34BN4v0T42psHyDMME-33" style="edgeStyle=orthogonalEdgeStyle;rounded=0;orthogonalLoop=1;jettySize=auto;html=1;entryX=0.5;entryY=0;entryDx=0;entryDy=0;" edge="1" parent="1" source="YL34BN4v0T42psHyDMME-28" target="YL34BN4v0T42psHyDMME-32">
          <mxGeometry relative="1" as="geometry" />
        </mxCell>
        <mxCell id="YL34BN4v0T42psHyDMME-28" value="&lt;font style=&quot;font-size: 18px;&quot;&gt;&lt;b&gt;게임 시작&lt;/b&gt;&lt;/font&gt;" style="rounded=0;whiteSpace=wrap;html=1;" vertex="1" parent="1">
          <mxGeometry x="-400" y="-800" width="120" height="60" as="geometry" />
        </mxCell>
        <mxCell id="YL34BN4v0T42psHyDMME-29" value="&lt;b style=&quot;border-color: var(--border-color); font-size: 18px;&quot;&gt;목숨의 갯수&lt;br&gt;설정&lt;br&gt;&lt;/b&gt;" style="rounded=0;whiteSpace=wrap;html=1;" vertex="1" parent="1">
          <mxGeometry x="-220" y="-800" width="120" height="60" as="geometry" />
        </mxCell>
        <mxCell id="YL34BN4v0T42psHyDMME-30" value="&lt;b style=&quot;border-color: var(--border-color); font-size: 18px;&quot;&gt;기록 보기&lt;/b&gt;" style="rounded=0;whiteSpace=wrap;html=1;" vertex="1" parent="1">
          <mxGeometry x="90" y="-800" width="120" height="60" as="geometry" />
        </mxCell>
        <mxCell id="YL34BN4v0T42psHyDMME-31" value="&lt;font style=&quot;font-size: 19px;&quot;&gt;&lt;b&gt;게임 시스템 종료&lt;/b&gt;&lt;/font&gt;" style="rounded=1;whiteSpace=wrap;html=1;fillColor=#f8cecc;strokeColor=#b85450;" vertex="1" parent="1">
          <mxGeometry x="270" y="-800" width="120" height="60" as="geometry" />
        </mxCell>
        <mxCell id="YL34BN4v0T42psHyDMME-36" style="edgeStyle=orthogonalEdgeStyle;rounded=0;orthogonalLoop=1;jettySize=auto;html=1;" edge="1" parent="1" source="YL34BN4v0T42psHyDMME-32" target="YL34BN4v0T42psHyDMME-35">
          <mxGeometry relative="1" as="geometry" />
        </mxCell>
        <mxCell id="YL34BN4v0T42psHyDMME-32" value="&lt;font style=&quot;font-size: 16px;&quot;&gt;맞추는 숫자 사용자 입력&lt;/font&gt;" style="shape=parallelogram;perimeter=parallelogramPerimeter;whiteSpace=wrap;html=1;fixedSize=1;" vertex="1" parent="1">
          <mxGeometry x="-455" y="-660" width="230" height="60" as="geometry" />
        </mxCell>
        <mxCell id="YL34BN4v0T42psHyDMME-37" style="edgeStyle=orthogonalEdgeStyle;rounded=0;orthogonalLoop=1;jettySize=auto;html=1;entryX=0.5;entryY=0;entryDx=0;entryDy=0;" edge="1" parent="1" source="YL34BN4v0T42psHyDMME-35" target="YL34BN4v0T42psHyDMME-43">
          <mxGeometry relative="1" as="geometry">
            <mxPoint x="-610" y="-400" as="targetPoint" />
          </mxGeometry>
        </mxCell>
        <mxCell id="YL34BN4v0T42psHyDMME-41" style="edgeStyle=orthogonalEdgeStyle;rounded=0;orthogonalLoop=1;jettySize=auto;html=1;entryX=0.5;entryY=0;entryDx=0;entryDy=0;" edge="1" parent="1" source="YL34BN4v0T42psHyDMME-35" target="YL34BN4v0T42psHyDMME-46">
          <mxGeometry relative="1" as="geometry">
            <mxPoint x="-70" y="-390" as="targetPoint" />
            <Array as="points">
              <mxPoint x="-75" y="-490" />
            </Array>
          </mxGeometry>
        </mxCell>
        <mxCell id="YL34BN4v0T42psHyDMME-35" value="&lt;span style=&quot;font-size: 16px;&quot;&gt;&lt;b&gt;사용자가 입력한 숫자와 정답이 같은가?&lt;/b&gt;&lt;/span&gt;" style="html=1;whiteSpace=wrap;aspect=fixed;shape=isoRectangle;" vertex="1" parent="1">
          <mxGeometry x="-440" y="-550" width="200" height="120" as="geometry" />
        </mxCell>
        <mxCell id="YL34BN4v0T42psHyDMME-38" value="&lt;span style=&quot;font-size: 18px; font-weight: 400;&quot;&gt;YES&lt;/span&gt;" style="text;strokeColor=none;fillColor=none;html=1;fontSize=24;fontStyle=1;verticalAlign=middle;align=center;" vertex="1" parent="1">
          <mxGeometry x="-555" y="-520" width="100" height="20" as="geometry" />
        </mxCell>
        <mxCell id="YL34BN4v0T42psHyDMME-42" value="&lt;span style=&quot;font-size: 18px; font-weight: 400;&quot;&gt;NO&lt;/span&gt;" style="text;strokeColor=none;fillColor=none;html=1;fontSize=24;fontStyle=1;verticalAlign=middle;align=center;" vertex="1" parent="1">
          <mxGeometry x="-220" y="-520" width="100" height="20" as="geometry" />
        </mxCell>
        <mxCell id="YL34BN4v0T42psHyDMME-44" style="edgeStyle=orthogonalEdgeStyle;rounded=0;orthogonalLoop=1;jettySize=auto;html=1;" edge="1" parent="1" source="YL34BN4v0T42psHyDMME-43" target="YL34BN4v0T42psHyDMME-7">
          <mxGeometry relative="1" as="geometry">
            <mxPoint x="-604" y="-1050" as="targetPoint" />
            <Array as="points">
              <mxPoint x="-710" y="-360" />
              <mxPoint x="-710" y="-1050" />
            </Array>
          </mxGeometry>
        </mxCell>
        <mxCell id="YL34BN4v0T42psHyDMME-43" value="&lt;span style=&quot;font-size: 18px;&quot;&gt;&lt;b&gt;플레이어 1승 추가&lt;/b&gt;&lt;/span&gt;" style="rounded=0;whiteSpace=wrap;html=1;" vertex="1" parent="1">
          <mxGeometry x="-670" y="-390" width="150" height="60" as="geometry" />
        </mxCell>
        <mxCell id="YL34BN4v0T42psHyDMME-55" style="edgeStyle=orthogonalEdgeStyle;rounded=0;orthogonalLoop=1;jettySize=auto;html=1;entryX=0.503;entryY=0.024;entryDx=0;entryDy=0;entryPerimeter=0;" edge="1" parent="1" source="YL34BN4v0T42psHyDMME-46" target="YL34BN4v0T42psHyDMME-51">
          <mxGeometry relative="1" as="geometry" />
        </mxCell>
        <mxCell id="YL34BN4v0T42psHyDMME-46" value="&lt;span style=&quot;font-size: 18px;&quot;&gt;&lt;b&gt;플레이어 목숨 1 감소&lt;/b&gt;&lt;/span&gt;" style="rounded=0;whiteSpace=wrap;html=1;" vertex="1" parent="1">
          <mxGeometry x="-150" y="-390" width="150" height="60" as="geometry" />
        </mxCell>
        <mxCell id="YL34BN4v0T42psHyDMME-59" style="edgeStyle=orthogonalEdgeStyle;rounded=0;orthogonalLoop=1;jettySize=auto;html=1;" edge="1" parent="1" source="YL34BN4v0T42psHyDMME-51" target="YL34BN4v0T42psHyDMME-58">
          <mxGeometry relative="1" as="geometry" />
        </mxCell>
        <mxCell id="YL34BN4v0T42psHyDMME-65" style="edgeStyle=orthogonalEdgeStyle;rounded=0;orthogonalLoop=1;jettySize=auto;html=1;entryX=1;entryY=0.5;entryDx=0;entryDy=0;" edge="1" parent="1" source="YL34BN4v0T42psHyDMME-51" target="YL34BN4v0T42psHyDMME-32">
          <mxGeometry relative="1" as="geometry">
            <mxPoint x="90" y="-630" as="targetPoint" />
            <Array as="points">
              <mxPoint x="120" y="-236" />
              <mxPoint x="120" y="-630" />
            </Array>
          </mxGeometry>
        </mxCell>
        <mxCell id="YL34BN4v0T42psHyDMME-51" value="&lt;span style=&quot;font-size: 16px;&quot;&gt;&lt;b&gt;플레이어의 목숨이 0 이상인가?&lt;/b&gt;&lt;/span&gt;" style="html=1;whiteSpace=wrap;aspect=fixed;shape=isoRectangle;" vertex="1" parent="1">
          <mxGeometry x="-168.32999999999998" y="-292" width="186.67" height="112" as="geometry" />
        </mxCell>
        <mxCell id="YL34BN4v0T42psHyDMME-56" value="&lt;span style=&quot;font-size: 18px; font-weight: 400;&quot;&gt;YES&lt;/span&gt;" style="text;strokeColor=none;fillColor=none;html=1;fontSize=24;fontStyle=1;verticalAlign=middle;align=center;" vertex="1" parent="1">
          <mxGeometry x="10" y="-266" width="100" height="20" as="geometry" />
        </mxCell>
        <mxCell id="YL34BN4v0T42psHyDMME-57" value="&lt;span style=&quot;font-size: 18px; font-weight: 400;&quot;&gt;NO&lt;/span&gt;" style="text;strokeColor=none;fillColor=none;html=1;fontSize=24;fontStyle=1;verticalAlign=middle;align=center;" vertex="1" parent="1">
          <mxGeometry x="-280" y="-266" width="100" height="20" as="geometry" />
        </mxCell>
        <mxCell id="YL34BN4v0T42psHyDMME-60" style="edgeStyle=orthogonalEdgeStyle;rounded=0;orthogonalLoop=1;jettySize=auto;html=1;" edge="1" parent="1" source="YL34BN4v0T42psHyDMME-58">
          <mxGeometry relative="1" as="geometry">
            <mxPoint x="-690" y="-360" as="targetPoint" />
          </mxGeometry>
        </mxCell>
        <mxCell id="YL34BN4v0T42psHyDMME-58" value="&lt;span style=&quot;font-size: 18px;&quot;&gt;&lt;b&gt;플레이어 1패 추가&lt;/b&gt;&lt;/span&gt;" style="rounded=0;whiteSpace=wrap;html=1;" vertex="1" parent="1">
          <mxGeometry x="-450" y="-266" width="150" height="60" as="geometry" />
        </mxCell>
      </root>
    </mxGraphModel>
  </diagram>
</mxfile>
